<svg viewBox="0 0 1280 720" xmlns="http://www.w3.org/2000/svg" width="100%" height="100%" preserveAspectRatio="xMidYMid slice"><defs><linearGradient id="animg1" x1="54.536634788057704%" y1="99.7937641155977%" x2="45.4633652119423%" y2="0.206235884402306%"><stop offset="0%" stop-color="hsla(341.4,80.7%,16.4%,1.000)"/><stop offset="100%" stop-color="hsla(261.0,10.0%,15.1%,1.000)"/></linearGradient><linearGradient id="animg2" x1="2.4447539377982554%" y1="34.55660102297926%" x2="97.55524606220175%" y2="65.44339897702073%"><stop offset="0%" stop-color="hsla(341.4,80.7%,16.4%,0.597)"/><stop offset="100%" stop-color="hsla(261.0,10.0%,15.1%,0.597)"/></linearGradient><filter id="animg3" filterUnits="userSpaceOnUse" x="-384.0" y="-216.0" width="2048.0" height="1152.0"><feTurbulence type="fractalNoise" baseFrequency="0.0166" numOctaves="1" result="noise"/><feDisplacementMap in="SourceGraphic" in2="noise" scale="97.6" xChannelSelector="R" yChannelSelector="G" result="disp"></feDisplacementMap><feColorMatrix in="disp" type="hueRotate" values="263.5" result="hued"></feColorMatrix><feColorMatrix in="hued" type="saturate" values="1.11" result="sat"/></filter><radialGradient id="animg4" cx="50%" cy="50%" r="50%"><stop offset="0%" stop-color="hsla(261.0,10.0%,15.1%,0.729)"/><stop offset="100%" stop-color="hsla(32.0,69.3%,29.1%,0.729)"/></radialGradient><pattern id="animg5" x="0" y="0" width="26.38642435598878" height="26.38642435598878" patternUnits="userSpaceOnUse"><rect x="0" y="0" width="13.19321217799439" height="13.19321217799439" fill="url(#animg4)"/><rect x="13.19321217799439" y="13.19321217799439" width="13.19321217799439" height="13.19321217799439" fill="url(#animg4)"/></pattern><filter id="animg6" filterUnits="userSpaceOnUse" x="-384.0" y="-216.0" width="2048.0" height="1152.0"><feTurbulence type="fractalNoise" baseFrequency="0.1229" numOctaves="5" result="noise"/><feDisplacementMap in="SourceGraphic" in2="noise" scale="31.1" xChannelSelector="R" yChannelSelector="G" result="disp"></feDisplacementMap></filter><radialGradient id="animg7" cx="50%" cy="50%" r="50%"><stop offset="0%" stop-color="hsla(140.6,79.8%,6.0%,0.821)"/><stop offset="100%" stop-color="hsla(341.4,80.7%,16.4%,0.821)"/></radialGradient><pattern id="animg8" x="0" y="0" width="9.358120949077186" height="9.358120949077186" patternUnits="userSpaceOnUse" patternTransform="rotate(12.3)"><line x1="0" y1="0" x2="0" y2="9.358120949077186" stroke="url(#animg7)" stroke-width="9.16" stroke-dasharray="9.3,3.8"/><line x1="0" y1="0" x2="9.358120949077186" y2="0" stroke="url(#animg7)" stroke-width="9.16" stroke-dasharray="9.3,3.8"/></pattern><filter id="animg9" filterUnits="userSpaceOnUse" x="-384.0" y="-216.0" width="2048.0" height="1152.0"><feTurbulence type="fractalNoise" baseFrequency="0.1096" numOctaves="3" result="noise"/><feDisplacementMap in="SourceGraphic" in2="noise" scale="44.2" xChannelSelector="R" yChannelSelector="G" result="disp"></feDisplacementMap><feColorMatrix in="disp" type="hueRotate" values="213.1" result="hued"></feColorMatrix><feColorMatrix in="hued" type="saturate" values="1.34" result="sat"/></filter></defs><rect width="1280" height="720" fill="url(#animg1)"/><g filter="url(#animg3)" ><g transform="translate(0.00,0.00) rotate(336.13) scale(1.953,1.095)" fill="url(#animg2)" stroke="hsla(355.1,100.0%,95.0%,0.305)" stroke-width="16.43" opacity="1.000" style="mix-blend-mode:hard-light"><circle cx="0" cy="0" r="364.80"><animate attributeName="r" from="364.80" to="640.00" calcMode="spline" keyTimes="0;1" keySplines="0.42 0 0.58 1" dur="10s" repeatCount="1" fill="freeze"/></circle></g><g transform="translate(426.67,0.00) rotate(336.13) scale(1.953,1.095)" fill="url(#animg2)" stroke="hsla(355.1,100.0%,95.0%,0.305)" stroke-width="16.43" opacity="1.000" style="mix-blend-mode:hard-light"><circle cx="0" cy="0" r="364.80"><animate attributeName="r" from="364.80" to="640.00" calcMode="spline" keyTimes="0;1" keySplines="0.42 0 0.58 1" dur="10s" repeatCount="1" fill="freeze"/></circle></g><g transform="translate(853.33,0.00) rotate(336.13) scale(1.953,1.095)" fill="url(#animg2)" stroke="hsla(355.1,100.0%,95.0%,0.305)" stroke-width="16.43" opacity="1.000" style="mix-blend-mode:hard-light"><circle cx="0" cy="0" r="364.80"><animate attributeName="r" from="364.80" to="640.00" calcMode="spline" keyTimes="0;1" keySplines="0.42 0 0.58 1" dur="10s" repeatCount="1" fill="freeze"/></circle></g><g transform="translate(1280.00,0.00) rotate(336.13) scale(1.953,1.095)" fill="url(#animg2)" stroke="hsla(355.1,100.0%,95.0%,0.305)" stroke-width="16.43" opacity="1.000" style="mix-blend-mode:hard-light"><circle cx="0" cy="0" r="364.80"><animate attributeName="r" from="364.80" to="640.00" calcMode="spline" keyTimes="0;1" keySplines="0.42 0 0.58 1" dur="10s" repeatCount="1" fill="freeze"/></circle></g><g transform="translate(0.00,360.00) rotate(336.13) scale(1.953,1.095)" fill="url(#animg2)" stroke="hsla(355.1,100.0%,95.0%,0.305)" stroke-width="16.43" opacity="1.000" style="mix-blend-mode:hard-light"><circle cx="0" cy="0" r="364.80"><animate attributeName="r" from="364.80" to="640.00" calcMode="spline" keyTimes="0;1" keySplines="0.42 0 0.58 1" dur="10s" repeatCount="1" fill="freeze"/></circle></g><g transform="translate(426.67,360.00) rotate(336.13) scale(1.953,1.095)" fill="url(#animg2)" stroke="hsla(355.1,100.0%,95.0%,0.305)" stroke-width="16.43" opacity="1.000" style="mix-blend-mode:hard-light"><circle cx="0" cy="0" r="364.80"><animate attributeName="r" from="364.80" to="640.00" calcMode="spline" keyTimes="0;1" keySplines="0.42 0 0.58 1" dur="10s" repeatCount="1" fill="freeze"/></circle></g><g transform="translate(853.33,360.00) rotate(336.13) scale(1.953,1.095)" fill="url(#animg2)" stroke="hsla(355.1,100.0%,95.0%,0.305)" stroke-width="16.43" opacity="1.000" style="mix-blend-mode:hard-light"><circle cx="0" cy="0" r="364.80"><animate attributeName="r" from="364.80" to="640.00" calcMode="spline" keyTimes="0;1" keySplines="0.42 0 0.58 1" dur="10s" repeatCount="1" fill="freeze"/></circle></g><g transform="translate(1280.00,360.00) rotate(336.13) scale(1.953,1.095)" fill="url(#animg2)" stroke="hsla(355.1,100.0%,95.0%,0.305)" stroke-width="16.43" opacity="1.000" style="mix-blend-mode:hard-light"><circle cx="0" cy="0" r="364.80"><animate attributeName="r" from="364.80" to="640.00" calcMode="spline" keyTimes="0;1" keySplines="0.42 0 0.58 1" dur="10s" repeatCount="1" fill="freeze"/></circle></g><g transform="translate(0.00,720.00) rotate(336.13) scale(1.953,1.095)" fill="url(#animg2)" stroke="hsla(355.1,100.0%,95.0%,0.305)" stroke-width="16.43" opacity="1.000" style="mix-blend-mode:hard-light"><circle cx="0" cy="0" r="364.80"><animate attributeName="r" from="364.80" to="640.00" calcMode="spline" keyTimes="0;1" keySplines="0.42 0 0.58 1" dur="10s" repeatCount="1" fill="freeze"/></circle></g><g transform="translate(426.67,720.00) rotate(336.13) scale(1.953,1.095)" fill="url(#animg2)" stroke="hsla(355.1,100.0%,95.0%,0.305)" stroke-width="16.43" opacity="1.000" style="mix-blend-mode:hard-light"><circle cx="0" cy="0" r="364.80"><animate attributeName="r" from="364.80" to="640.00" calcMode="spline" keyTimes="0;1" keySplines="0.42 0 0.58 1" dur="10s" repeatCount="1" fill="freeze"/></circle></g><g transform="translate(853.33,720.00) rotate(336.13) scale(1.953,1.095)" fill="url(#animg2)" stroke="hsla(355.1,100.0%,95.0%,0.305)" stroke-width="16.43" opacity="1.000" style="mix-blend-mode:hard-light"><circle cx="0" cy="0" r="364.80"><animate attributeName="r" from="364.80" to="640.00" calcMode="spline" keyTimes="0;1" keySplines="0.42 0 0.58 1" dur="10s" repeatCount="1" fill="freeze"/></circle></g><g transform="translate(1280.00,720.00) rotate(336.13) scale(1.953,1.095)" fill="url(#animg2)" stroke="hsla(355.1,100.0%,95.0%,0.305)" stroke-width="16.43" opacity="1.000" style="mix-blend-mode:hard-light"><circle cx="0" cy="0" r="364.80"><animate attributeName="r" from="364.80" to="640.00" calcMode="spline" keyTimes="0;1" keySplines="0.42 0 0.58 1" dur="10s" repeatCount="1" fill="freeze"/></circle></g></g><g opacity="0.620" style="mix-blend-mode:hard-light" filter="url(#animg6)" ><rect x="-1280" y="-720" width="3840" height="2160" fill="url(#animg5)"/></g><g transform="translate(0.00,0.00) rotate(72.59) scale(1.334,0.345)" fill="hsla(355.1,100.0%,95.0%,0.645)" stroke="hsla(355.1,100.0%,95.0%,0.223)" stroke-width="10.05" stroke-dasharray="17.5,7.5" opacity="0.993" style="mix-blend-mode:color-dodge"><ellipse cx="0" cy="0" rx="399.87" ry="293.04"/></g><g transform="translate(640.00,0.00) rotate(72.59) scale(1.334,0.345)" fill="hsla(355.1,100.0%,95.0%,0.645)" stroke="hsla(355.1,100.0%,95.0%,0.223)" stroke-width="10.05" stroke-dasharray="17.5,7.5" opacity="0.993" style="mix-blend-mode:color-dodge"><ellipse cx="0" cy="0" rx="399.87" ry="293.04"/></g><g transform="translate(1280.00,0.00) rotate(72.59) scale(1.334,0.345)" fill="hsla(355.1,100.0%,95.0%,0.645)" stroke="hsla(355.1,100.0%,95.0%,0.223)" stroke-width="10.05" stroke-dasharray="17.5,7.5" opacity="0.993" style="mix-blend-mode:color-dodge"><ellipse cx="0" cy="0" rx="399.87" ry="293.04"/></g><g transform="translate(0.00,720.00) rotate(72.59) scale(1.334,0.345)" fill="hsla(355.1,100.0%,95.0%,0.645)" stroke="hsla(355.1,100.0%,95.0%,0.223)" stroke-width="10.05" stroke-dasharray="17.5,7.5" opacity="0.993" style="mix-blend-mode:color-dodge"><ellipse cx="0" cy="0" rx="399.87" ry="293.04"/></g><g transform="translate(640.00,720.00) rotate(72.59) scale(1.334,0.345)" fill="hsla(355.1,100.0%,95.0%,0.645)" stroke="hsla(355.1,100.0%,95.0%,0.223)" stroke-width="10.05" stroke-dasharray="17.5,7.5" opacity="0.993" style="mix-blend-mode:color-dodge"><ellipse cx="0" cy="0" rx="399.87" ry="293.04"/></g><g transform="translate(1280.00,720.00) rotate(72.59) scale(1.334,0.345)" fill="hsla(355.1,100.0%,95.0%,0.645)" stroke="hsla(355.1,100.0%,95.0%,0.223)" stroke-width="10.05" stroke-dasharray="17.5,7.5" opacity="0.993" style="mix-blend-mode:color-dodge"><ellipse cx="0" cy="0" rx="399.87" ry="293.04"/></g><g opacity="0.890" style="mix-blend-mode:screen" filter="url(#animg9)" ><rect x="-1280" y="-720" width="3840" height="2160" fill="url(#animg8)"/></g><g transform="translate(473.81,266.80) rotate(223.56) scale(1.463,1.492)" fill="hsla(355.1,100.0%,95.0%,0.758)" stroke="hsla(261.0,10.0%,15.1%,0.284)" stroke-width="2.35" opacity="0.573" style="mix-blend-mode:multiply"><polygon points="0.00,-228.47 161.55,-161.55 228.47,0.00 161.55,161.55 0.00,228.47 -161.55,161.55 -228.47,0.00 -161.55,-161.55"/></g><g transform="translate(475.29,267.63) rotate(223.98) scale(1.463,1.492)" fill="hsla(355.1,100.0%,95.0%,0.758)" stroke="hsla(261.0,10.0%,15.1%,0.284)" stroke-width="2.35" opacity="0.573" style="mix-blend-mode:multiply"><polygon points="0.00,-228.47 161.55,-161.55 228.47,0.00 161.55,161.55 0.00,228.47 -161.55,161.55 -228.47,0.00 -161.55,-161.55"/></g><g transform="translate(476.78,268.47) rotate(224.40) scale(1.463,1.492)" fill="hsla(355.1,100.0%,95.0%,0.758)" stroke="hsla(261.0,10.0%,15.1%,0.284)" stroke-width="2.35" opacity="0.573" style="mix-blend-mode:multiply"><polygon points="0.00,-228.47 161.55,-161.55 228.47,0.00 161.55,161.55 0.00,228.47 -161.55,161.55 -228.47,0.00 -161.55,-161.55"/></g><g transform="translate(478.27,269.31) rotate(224.82) scale(1.463,1.492)" fill="hsla(355.1,100.0%,95.0%,0.758)" stroke="hsla(261.0,10.0%,15.1%,0.284)" stroke-width="2.35" opacity="0.573" style="mix-blend-mode:multiply"><polygon points="0.00,-228.47 161.55,-161.55 228.47,0.00 161.55,161.55 0.00,228.47 -161.55,161.55 -228.47,0.00 -161.55,-161.55"/></g><g transform="translate(479.76,270.14) rotate(225.23) scale(1.463,1.492)" fill="hsla(355.1,100.0%,95.0%,0.758)" stroke="hsla(261.0,10.0%,15.1%,0.284)" stroke-width="2.35" opacity="0.573" style="mix-blend-mode:multiply"><polygon points="0.00,-228.47 161.55,-161.55 228.47,0.00 161.55,161.55 0.00,228.47 -161.55,161.55 -228.47,0.00 -161.55,-161.55"/></g><g transform="translate(481.25,270.98) rotate(225.65) scale(1.463,1.492)" fill="hsla(355.1,100.0%,95.0%,0.758)" stroke="hsla(261.0,10.0%,15.1%,0.284)" stroke-width="2.35" opacity="0.573" style="mix-blend-mode:multiply"><polygon points="0.00,-228.47 161.55,-161.55 228.47,0.00 161.55,161.55 0.00,228.47 -161.55,161.55 -228.47,0.00 -161.55,-161.55"/></g><g transform="translate(482.74,271.82) rotate(226.07) scale(1.463,1.492)" fill="hsla(355.1,100.0%,95.0%,0.758)" stroke="hsla(261.0,10.0%,15.1%,0.284)" stroke-width="2.35" opacity="0.573" style="mix-blend-mode:multiply"><polygon points="0.00,-228.47 161.55,-161.55 228.47,0.00 161.55,161.55 0.00,228.47 -161.55,161.55 -228.47,0.00 -161.55,-161.55"/></g><g transform="translate(484.22,272.65) rotate(226.49) scale(1.463,1.492)" fill="hsla(355.1,100.0%,95.0%,0.758)" stroke="hsla(261.0,10.0%,15.1%,0.284)" stroke-width="2.35" opacity="0.573" style="mix-blend-mode:multiply"><polygon points="0.00,-228.47 161.55,-161.55 228.47,0.00 161.55,161.55 0.00,228.47 -161.55,161.55 -228.47,0.00 -161.55,-161.55"/></g><g transform="translate(485.71,273.49) rotate(226.91) scale(1.463,1.492)" fill="hsla(355.1,100.0%,95.0%,0.758)" stroke="hsla(261.0,10.0%,15.1%,0.284)" stroke-width="2.35" opacity="0.573" style="mix-blend-mode:multiply"><polygon points="0.00,-228.47 161.55,-161.55 228.47,0.00 161.55,161.55 0.00,228.47 -161.55,161.55 -228.47,0.00 -161.55,-161.55"/></g><g transform="translate(487.20,274.33) rotate(227.33) scale(1.463,1.492)" fill="hsla(355.1,100.0%,95.0%,0.758)" stroke="hsla(261.0,10.0%,15.1%,0.284)" stroke-width="2.35" opacity="0.573" style="mix-blend-mode:multiply"><polygon points="0.00,-228.47 161.55,-161.55 228.47,0.00 161.55,161.55 0.00,228.47 -161.55,161.55 -228.47,0.00 -161.55,-161.55"/></g><g transform="translate(488.69,275.17) rotate(227.75) scale(1.463,1.492)" fill="hsla(355.1,100.0%,95.0%,0.758)" stroke="hsla(261.0,10.0%,15.1%,0.284)" stroke-width="2.35" opacity="0.573" style="mix-blend-mode:multiply"><polygon points="0.00,-228.47 161.55,-161.55 228.47,0.00 161.55,161.55 0.00,228.47 -161.55,161.55 -228.47,0.00 -161.55,-161.55"/></g><g transform="translate(490.18,276.00) rotate(228.16) scale(1.463,1.492)" fill="hsla(355.1,100.0%,95.0%,0.758)" stroke="hsla(261.0,10.0%,15.1%,0.284)" stroke-width="2.35" opacity="0.573" style="mix-blend-mode:multiply"><polygon points="0.00,-228.47 161.55,-161.55 228.47,0.00 161.55,161.55 0.00,228.47 -161.55,161.55 -228.47,0.00 -161.55,-161.55"/></g></svg>