<svg viewBox="0.00 0.00 1280.00 720.00" xmlns="http://www.w3.org/2000/svg" width="1280" height="720" preserveAspectRatio="xMidYMid slice"><defs><radialGradient id="animg1" cx="50%" cy="50%" r="50%"><stop offset="0%" stop-color="hsla(174.9,99.4%,19.3%,0.610)"/><stop offset="100%" stop-color="hsla(174.9,99.4%,19.3%,0.610)"/></radialGradient><filter id="animg2" filterUnits="userSpaceOnUse" x="-384.0" y="-216.0" width="2048.0" height="1152.0"><feTurbulence type="fractalNoise" baseFrequency="0.0174" numOctaves="2" result="noise"/><feDisplacementMap in="SourceGraphic" in2="noise" scale="0.0" xChannelSelector="R" yChannelSelector="G" result="disp"><animate attributeName="scale" values="0.0;227.0;0.0" keyTimes="0;0.5;1" calcMode="spline" keySplines="0.42 0 0.58 1;0.42 0 0.58 1" dur="10s" repeatCount="indefinite" fill="freeze"/></feDisplacementMap><feColorMatrix in="disp" type="hueRotate" values="191.8" result="hued"></feColorMatrix><feColorMatrix in="hued" type="saturate" values="2.64" result="sat"/><feComponentTransfer in="sat" result="ctrans"><feFuncR type="gamma" amplitude="1" exponent="1.751" offset="0"/><feFuncG type="gamma" amplitude="1" exponent="2.665" offset="0"/><feFuncB type="gamma" amplitude="1" exponent="1.679" offset="0"/></feComponentTransfer></filter><filter id="animg3" x="-30%" y="-30%" width="160%" height="160%"><feMorphology in="SourceGraphic" operator="dilate" radius="5.0 3.5" result="morph"/><feColorMatrix in="morph" type="hueRotate" values="301.4" result="hued"></feColorMatrix><feColorMatrix in="hued" type="saturate" values="0.69" result="sat"/><feComponentTransfer in="sat" result="ctrans"><feFuncR type="gamma" amplitude="1" exponent="1.450" offset="0"/><feFuncG type="gamma" amplitude="1" exponent="0.880" offset="0"/><feFuncB type="gamma" amplitude="1" exponent="2.249" offset="0"/></feComponentTransfer></filter></defs><rect width="1280" height="720" fill="hsla(319.6,74.4%,5.0%,1.000)"/><g data-layer="0" filter="url(#animg2)" ><g transform="translate(0.00,0.00) rotate(303.85) scale(1.832,0.633)" fill="url(#animg1)" stroke="hsla(319.6,74.4%,5.0%,0.928)" stroke-width="21.19" opacity="0.793" style="mix-blend-mode:color-dodge"><path d="M 412.5 -263.6 L 17.0 22.2 L -348.0 485.9 L -435.8 -298.9 Z"/></g><g transform="translate(426.67,0.00) rotate(303.85) scale(1.832,0.633)" fill="url(#animg1)" stroke="hsla(319.6,74.4%,5.0%,0.928)" stroke-width="21.19" opacity="0.793" style="mix-blend-mode:color-dodge"><path d="M 412.5 -263.6 L 17.0 22.2 L -348.0 485.9 L -435.8 -298.9 Z"/></g><g transform="translate(853.33,0.00) rotate(303.85) scale(1.832,0.633)" fill="url(#animg1)" stroke="hsla(319.6,74.4%,5.0%,0.928)" stroke-width="21.19" opacity="0.793" style="mix-blend-mode:color-dodge"><path d="M 412.5 -263.6 L 17.0 22.2 L -348.0 485.9 L -435.8 -298.9 Z"/></g><g transform="translate(1280.00,0.00) rotate(303.85) scale(1.832,0.633)" fill="url(#animg1)" stroke="hsla(319.6,74.4%,5.0%,0.928)" stroke-width="21.19" opacity="0.793" style="mix-blend-mode:color-dodge"><path d="M 412.5 -263.6 L 17.0 22.2 L -348.0 485.9 L -435.8 -298.9 Z"/></g><g transform="translate(0.00,180.00) rotate(303.85) scale(1.832,0.633)" fill="url(#animg1)" stroke="hsla(319.6,74.4%,5.0%,0.928)" stroke-width="21.19" opacity="0.793" style="mix-blend-mode:color-dodge"><path d="M 412.5 -263.6 L 17.0 22.2 L -348.0 485.9 L -435.8 -298.9 Z"/></g><g transform="translate(426.67,180.00) rotate(303.85) scale(1.832,0.633)" fill="url(#animg1)" stroke="hsla(319.6,74.4%,5.0%,0.928)" stroke-width="21.19" opacity="0.793" style="mix-blend-mode:color-dodge"><path d="M 412.5 -263.6 L 17.0 22.2 L -348.0 485.9 L -435.8 -298.9 Z"/></g><g transform="translate(853.33,180.00) rotate(303.85) scale(1.832,0.633)" fill="url(#animg1)" stroke="hsla(319.6,74.4%,5.0%,0.928)" stroke-width="21.19" opacity="0.793" style="mix-blend-mode:color-dodge"><path d="M 412.5 -263.6 L 17.0 22.2 L -348.0 485.9 L -435.8 -298.9 Z"/></g><g transform="translate(1280.00,180.00) rotate(303.85) scale(1.832,0.633)" fill="url(#animg1)" stroke="hsla(319.6,74.4%,5.0%,0.928)" stroke-width="21.19" opacity="0.793" style="mix-blend-mode:color-dodge"><path d="M 412.5 -263.6 L 17.0 22.2 L -348.0 485.9 L -435.8 -298.9 Z"/></g><g transform="translate(0.00,360.00) rotate(303.85) scale(1.832,0.633)" fill="url(#animg1)" stroke="hsla(319.6,74.4%,5.0%,0.928)" stroke-width="21.19" opacity="0.793" style="mix-blend-mode:color-dodge"><path d="M 412.5 -263.6 L 17.0 22.2 L -348.0 485.9 L -435.8 -298.9 Z"/></g><g transform="translate(426.67,360.00) rotate(303.85) scale(1.832,0.633)" fill="url(#animg1)" stroke="hsla(319.6,74.4%,5.0%,0.928)" stroke-width="21.19" opacity="0.793" style="mix-blend-mode:color-dodge"><path d="M 412.5 -263.6 L 17.0 22.2 L -348.0 485.9 L -435.8 -298.9 Z"/></g><g transform="translate(853.33,360.00) rotate(303.85) scale(1.832,0.633)" fill="url(#animg1)" stroke="hsla(319.6,74.4%,5.0%,0.928)" stroke-width="21.19" opacity="0.793" style="mix-blend-mode:color-dodge"><path d="M 412.5 -263.6 L 17.0 22.2 L -348.0 485.9 L -435.8 -298.9 Z"/></g><g transform="translate(1280.00,360.00) rotate(303.85) scale(1.832,0.633)" fill="url(#animg1)" stroke="hsla(319.6,74.4%,5.0%,0.928)" stroke-width="21.19" opacity="0.793" style="mix-blend-mode:color-dodge"><path d="M 412.5 -263.6 L 17.0 22.2 L -348.0 485.9 L -435.8 -298.9 Z"/></g><g transform="translate(0.00,540.00) rotate(303.85) scale(1.832,0.633)" fill="url(#animg1)" stroke="hsla(319.6,74.4%,5.0%,0.928)" stroke-width="21.19" opacity="0.793" style="mix-blend-mode:color-dodge"><path d="M 412.5 -263.6 L 17.0 22.2 L -348.0 485.9 L -435.8 -298.9 Z"/></g><g transform="translate(426.67,540.00) rotate(303.85) scale(1.832,0.633)" fill="url(#animg1)" stroke="hsla(319.6,74.4%,5.0%,0.928)" stroke-width="21.19" opacity="0.793" style="mix-blend-mode:color-dodge"><path d="M 412.5 -263.6 L 17.0 22.2 L -348.0 485.9 L -435.8 -298.9 Z"/></g><g transform="translate(853.33,540.00) rotate(303.85) scale(1.832,0.633)" fill="url(#animg1)" stroke="hsla(319.6,74.4%,5.0%,0.928)" stroke-width="21.19" opacity="0.793" style="mix-blend-mode:color-dodge"><path d="M 412.5 -263.6 L 17.0 22.2 L -348.0 485.9 L -435.8 -298.9 Z"/></g><g transform="translate(1280.00,540.00) rotate(303.85) scale(1.832,0.633)" fill="url(#animg1)" stroke="hsla(319.6,74.4%,5.0%,0.928)" stroke-width="21.19" opacity="0.793" style="mix-blend-mode:color-dodge"><path d="M 412.5 -263.6 L 17.0 22.2 L -348.0 485.9 L -435.8 -298.9 Z"/></g><g transform="translate(0.00,720.00) rotate(303.85) scale(1.832,0.633)" fill="url(#animg1)" stroke="hsla(319.6,74.4%,5.0%,0.928)" stroke-width="21.19" opacity="0.793" style="mix-blend-mode:color-dodge"><path d="M 412.5 -263.6 L 17.0 22.2 L -348.0 485.9 L -435.8 -298.9 Z"/></g><g transform="translate(426.67,720.00) rotate(303.85) scale(1.832,0.633)" fill="url(#animg1)" stroke="hsla(319.6,74.4%,5.0%,0.928)" stroke-width="21.19" opacity="0.793" style="mix-blend-mode:color-dodge"><path d="M 412.5 -263.6 L 17.0 22.2 L -348.0 485.9 L -435.8 -298.9 Z"/></g><g transform="translate(853.33,720.00) rotate(303.85) scale(1.832,0.633)" fill="url(#animg1)" stroke="hsla(319.6,74.4%,5.0%,0.928)" stroke-width="21.19" opacity="0.793" style="mix-blend-mode:color-dodge"><path d="M 412.5 -263.6 L 17.0 22.2 L -348.0 485.9 L -435.8 -298.9 Z"/></g><g transform="translate(1280.00,720.00) rotate(303.85) scale(1.832,0.633)" fill="url(#animg1)" stroke="hsla(319.6,74.4%,5.0%,0.928)" stroke-width="21.19" opacity="0.793" style="mix-blend-mode:color-dodge"><path d="M 412.5 -263.6 L 17.0 22.2 L -348.0 485.9 L -435.8 -298.9 Z"/></g></g><g data-layer="1" filter="url(#animg3)" ><g transform="translate(800.22,450.40) rotate(311.76) scale(1.350,0.761)" fill="hsla(264.6,27.0%,5.0%,0.537)" stroke="none" stroke-width="0.00" stroke-dasharray="12.9,7.2" opacity="0.891" style="mix-blend-mode:overlay"><path d="M 0.0 -505.2 C 176.9 -504.9,349.5 -406.1,438.1 -253.0 C 526.9 -99.6,527.2 99.8,438.8 253.3 C 350.2 407.1,177.5 507.2,0.0 507.4 C -177.7 507.5,-351.1 407.9,-440.0 254.1 C -529.1 100.0,-529.9 -100.4,-440.7 -254.4 C -351.7 -408.0,-177.5 -505.5,0.0 -505.2 Z"/></g><g transform="translate(801.71,451.24) rotate(312.18) scale(1.350,0.761)" fill="hsla(264.6,27.0%,5.0%,0.537)" stroke="none" stroke-width="0.00" stroke-dasharray="12.9,7.2" opacity="0.891" style="mix-blend-mode:overlay"><path d="M 0.0 -505.2 C 176.9 -504.9,349.5 -406.1,438.1 -253.0 C 526.9 -99.6,527.2 99.8,438.8 253.3 C 350.2 407.1,177.5 507.2,0.0 507.4 C -177.7 507.5,-351.1 407.9,-440.0 254.1 C -529.1 100.0,-529.9 -100.4,-440.7 -254.4 C -351.7 -408.0,-177.5 -505.5,0.0 -505.2 Z"/></g><g transform="translate(803.19,452.08) rotate(312.60) scale(1.350,0.761)" fill="hsla(264.6,27.0%,5.0%,0.537)" stroke="none" stroke-width="0.00" stroke-dasharray="12.9,7.2" opacity="0.891" style="mix-blend-mode:overlay"><path d="M 0.0 -505.2 C 176.9 -504.9,349.5 -406.1,438.1 -253.0 C 526.9 -99.6,527.2 99.8,438.8 253.3 C 350.2 407.1,177.5 507.2,0.0 507.4 C -177.7 507.5,-351.1 407.9,-440.0 254.1 C -529.1 100.0,-529.9 -100.4,-440.7 -254.4 C -351.7 -408.0,-177.5 -505.5,0.0 -505.2 Z"/></g><g transform="translate(804.68,452.91) rotate(313.02) scale(1.350,0.761)" fill="hsla(264.6,27.0%,5.0%,0.537)" stroke="none" stroke-width="0.00" stroke-dasharray="12.9,7.2" opacity="0.891" style="mix-blend-mode:overlay"><path d="M 0.0 -505.2 C 176.9 -504.9,349.5 -406.1,438.1 -253.0 C 526.9 -99.6,527.2 99.8,438.8 253.3 C 350.2 407.1,177.5 507.2,0.0 507.4 C -177.7 507.5,-351.1 407.9,-440.0 254.1 C -529.1 100.0,-529.9 -100.4,-440.7 -254.4 C -351.7 -408.0,-177.5 -505.5,0.0 -505.2 Z"/></g><g transform="translate(806.17,453.75) rotate(313.44) scale(1.350,0.761)" fill="hsla(264.6,27.0%,5.0%,0.537)" stroke="none" stroke-width="0.00" stroke-dasharray="12.9,7.2" opacity="0.891" style="mix-blend-mode:overlay"><path d="M 0.0 -505.2 C 176.9 -504.9,349.5 -406.1,438.1 -253.0 C 526.9 -99.6,527.2 99.8,438.8 253.3 C 350.2 407.1,177.5 507.2,0.0 507.4 C -177.7 507.5,-351.1 407.9,-440.0 254.1 C -529.1 100.0,-529.9 -100.4,-440.7 -254.4 C -351.7 -408.0,-177.5 -505.5,0.0 -505.2 Z"/></g><g transform="translate(807.66,454.59) rotate(313.85) scale(1.350,0.761)" fill="hsla(264.6,27.0%,5.0%,0.537)" stroke="none" stroke-width="0.00" stroke-dasharray="12.9,7.2" opacity="0.891" style="mix-blend-mode:overlay"><path d="M 0.0 -505.2 C 176.9 -504.9,349.5 -406.1,438.1 -253.0 C 526.9 -99.6,527.2 99.8,438.8 253.3 C 350.2 407.1,177.5 507.2,0.0 507.4 C -177.7 507.5,-351.1 407.9,-440.0 254.1 C -529.1 100.0,-529.9 -100.4,-440.7 -254.4 C -351.7 -408.0,-177.5 -505.5,0.0 -505.2 Z"/></g><g transform="translate(809.15,455.42) rotate(314.27) scale(1.350,0.761)" fill="hsla(264.6,27.0%,5.0%,0.537)" stroke="none" stroke-width="0.00" stroke-dasharray="12.9,7.2" opacity="0.891" style="mix-blend-mode:overlay"><path d="M 0.0 -505.2 C 176.9 -504.9,349.5 -406.1,438.1 -253.0 C 526.9 -99.6,527.2 99.8,438.8 253.3 C 350.2 407.1,177.5 507.2,0.0 507.4 C -177.7 507.5,-351.1 407.9,-440.0 254.1 C -529.1 100.0,-529.9 -100.4,-440.7 -254.4 C -351.7 -408.0,-177.5 -505.5,0.0 -505.2 Z"/></g></g><metadata><evolvesvg:genome xmlns:evolvesvg="https://evolvesvg">{"palette":[{"h":319.5748260147659,"s":74.42024150067664,"l":5},{"h":260.81711757848063,"s":56.32746187567693,"l":13.274819667869195},{"h":252.61301665712222,"s":27.135505440712834,"l":18.489890361370836},{"h":174.85863067677508,"s":99.3800650213422,"l":19.320402992654007},{"h":264.58428998072077,"s":27.03793463690355,"l":5}],"background":{"type":"solid","paletteIdx":0,"paletteIdx2":1,"angle":52.161083912376625},"layers":[{"type":"path","cx":0.19090015127852575,"cy":0.6168207722938241,"params":{"pts":[[0.8223023530386735,0.29407981893676133],[0.5132763030763132,0.5173308829440069],[0.22810103715890115,0.8795897814025215],[0.15950145105014826,0.266487458327809]]},"fill":{"type":"radial","paletteIdx":3,"paletteIdx2":3,"alpha":0.6100787167146344,"angle":198.27091062160878},"stroke":{"paletteIdx":0,"width":0.016551607786713992,"alpha":0.9284353057635526},"opacity":0.7929447608611274,"blendMode":"color-dodge","transform":{"rotate":303.8460879873751,"scaleX":1.8322415846750673,"scaleY":0.6333115782488936},"arrangement":"grid","arrangementParams":{"nx":4,"ny":5},"colorShift":{"hueRotate":191.82869929290064,"saturate":2.6369546014236005},"displace":{"scale":77.4105699674469,"baseFreq":0.017371151405799014,"octaves":2},"componentTransfer":{"rExp":1.7506460758219793,"gExp":2.664774167045561,"bExp":1.6794146313856957}},{"type":"blob","cx":0.44778585886617994,"cy":0.5580609924266924,"params":{"r":0.3380826850644429,"jitter":0.31317327660791144,"points":6,"seed":1902},"fill":{"type":"solid","paletteIdx":4,"paletteIdx2":3,"alpha":0.5373914724443545,"angle":32.64456068202755},"stroke":{"paletteIdx":0,"width":0,"alpha":0.7650764321523827},"opacity":0.8907959603297045,"blendMode":"overlay","transform":{"rotate":86.42072250513695,"scaleX":1.35,"scaleY":0.7611073637192745},"arrangement":"scatter","arrangementParams":{"count":7},"dash":{"len":12.877514896767629,"gap":7.215640019800065},"morph":{"operator":"dilate","radiusX":4.990425844538728,"radiusY":3.5491377928906562},"colorShift":{"hueRotate":301.4438359468136,"saturate":0.6900156877199126},"componentTransfer":{"rExp":1.4500669039326874,"gExp":0.8795165694339095,"bExp":2.248899194642816}}]}</evolvesvg:genome><evolvesvg:animation xmlns:evolvesvg="https://evolvesvg">[{"target":"layer","layerIdx":0,"param":"displaceScale","fromVal":0,"toVal":227,"dur":10,"repeatCount":"indefinite","direction":"alternate","easing":"easeInOut","customSpline":"0.42 0 0.58 1","_step":1,"_unit":""}]</evolvesvg:animation><evolvesvg:viewport xmlns:evolvesvg="https://evolvesvg">{"panX":0,"panY":0,"zoom":1}</evolvesvg:viewport></metadata></svg>